<svg width="800" height="256" xmlns="http://www.w3.org/2000/svg" preserveAspectRatio="xMidYMid">

 <g>
  <title>background</title>
  <rect fill="none" id="canvas_background" height="258" width="802" y="-1" x="-1"/>
 </g>
 <g>
  <title>Layer 1</title>
  <g id="svg_1">
   <path id="svg_2" fill="#333333" d="m128,9.102c65.665,0 118.898,53.233 118.898,118.898c0,65.665 -53.233,118.898 -118.898,118.898c-65.665,0 -118.898,-53.233 -118.898,-118.898c0,-65.665 53.233,-118.898 118.898,-118.898m0,-9.102c-70.579,0 -128,57.421 -128,128c0,70.579 57.421,128 128,128c70.579,0 128,-57.421 128,-128c0,-70.579 -57.421,-128 -128,-128m20.83,25.524c-10.43,-1.896 -35.651,36.409 -43.994,59.734c-0.634,1.769 -2.086,8.249 -2.086,9.955c0,0 6.531,14.055 8.343,17.351c-3.034,-1.58 -9.323,-13.756 -9.323,-13.756c-3.034,5.784 -5.942,32.34 -4.994,37.271c0,0 6.762,10.062 9.387,12.578c-3.603,-1.201 -9.671,-9.355 -9.671,-9.355c-1.138,3.508 -0.916,10.807 -0.379,13.274c4.551,6.637 10.619,7.396 10.619,7.396c0,0 -6.637,66.181 3.413,71.111c6.258,-1.327 7.775,-73.956 7.775,-73.956c0,0 7.585,0.569 9.292,-1.327c3.856,-2.655 12.826,-30.224 12.958,-34.202c0,0 -10.41,1.952 -15.487,3.924c3.826,-3.8 16.049,-6.352 16.049,-6.352c3.315,-3.979 10.291,-31.047 10.994,-39.391c0.176,-2.093 0.583,-4.657 0.268,-8.398c0,0 -9.941,2.177 -12.014,1.424c2.104,-0.237 12.263,-4.14 12.263,-4.14c1.801,-16.213 2.358,-42.091 -3.413,-43.141l0,0zm-36.38,171.691c-0.795,19.496 -1.294,25.004 -2.115,29.601c-0.379,0.857 -0.758,0.997 -1.138,-0.095c-3.477,-15.992 -3.224,-136.438 36.409,-191.241c-23.05,42.092 -33.535,122.861 -33.156,161.735l0,0z"/>
  </g>
  <text xml:space="preserve" text-anchor="start" font-family="'Trebuchet MS', Gadget, sans-serif" font-size="90" id="svg_3" y="94.45313" x="304" fill-opacity="null" stroke-opacity="null" stroke-width="0" stroke="#000" fill="#000000">Feathers</text>
  <text xml:space="preserve" text-anchor="start" font-family="Helvetica, Arial, sans-serif" font-size="90" id="svg_4" y="226.45313" x="304" fill-opacity="null" stroke-opacity="null" stroke-width="0" stroke="#000" fill="#000000">Offline-first</text>
 </g>
</svg>